<svg width="178" height="69" viewBox="0 0 178 69" fill="none" xmlns="http://www.w3.org/2000/svg">
<path d="M38.7578 64.2891L38.4648 64.0352L37.918 62.8828L38.1328 62.8242L40.2422 62.3164V48.5469L41.4922 49.1914H43.7773V46.1445L45.0469 46.3398L45.3594 46.5547L45.0469 46.75V49.1914H47.7031L48.3477 48.6641L49.5 49.6016L48.9727 50.0312V56.418L47.7031 57.0625V56.0078H44.1484L44.5586 56.9453L45.0469 57.9219L45.5742 58.8398L46.1406 59.6602L46.7656 60.3828L47.0391 60.6562L46.9609 60.5391L47.7812 59.582L49.832 57.2773L49.9297 57.1797L50.7891 58.0977L50.8672 58.4688L50.4766 58.3711L49.3047 59.2891L48.582 59.8359L47.8203 60.3047L47.0781 60.6953L47.4297 61.0469L48.1328 61.6328L48.9141 62.1211L49.7344 62.5508L51.2969 63.1953L50.0859 64.2109L49.1094 63.7227L48.2305 63.1758L47.4102 62.5312L46.668 61.8086L46.0039 61.0078L45.418 60.1484L44.9102 59.1914L44.4805 58.1758L44.1484 57.082L43.9336 56.0078H41.4922V61.9844L42.332 61.7891L43.875 61.3984L45.4961 61.0664L45.5547 61.2422L44.0508 61.9453L42.5859 62.5508L40.4766 63.3516L39.1289 63.8203L38.8945 63.8984L38.7578 64.2891ZM35.7695 64.2891L35.3398 64.0742L35.1836 63.625L35.2422 62.8828L35.2617 62.2188L35.2031 61.6133L35.0859 61.0664L34.9102 60.5781L34.6758 60.1484L34.3828 59.7383L34.0117 59.3867L33.582 59.0547L33.0547 58.7422L33.1133 58.5664L33.7383 58.7031L34.3242 58.918L34.8516 59.25L35.0859 59.4648L36.6484 56.4961L38.6016 53.0391L39.4219 51.6523L39.5977 51.75L36.6289 58.625L36.1406 59.875L36.0039 60.3047L35.9453 60.5781H35.9258L36.0039 60.7344L36.2188 61.3789L36.375 62.1016L36.4531 62.8828V63.7227L36.2188 64.1523L35.7695 64.2891ZM41.4922 55.5781H47.7031V52.7461H41.4922V55.5781ZM35.8477 54.1328L35.457 53.8594L35.3594 53.6641L35.2422 53.4492L35.0664 53.2344L34.8711 53.0195L34.3633 52.5898L34.0312 52.3555L33.2891 51.9062L32.8594 51.7109L32.918 51.5352L33.8555 51.7109L34.2852 51.8086L34.6758 51.9453L35.0664 52.1016L35.3984 52.2773L35.7305 52.4727L36.0234 52.6875L36.2969 52.9219L36.5312 53.1953L36.5898 53.6836L36.3164 54.0742L35.8477 54.1328ZM41.4922 52.3359H47.7031V49.6016H41.4922V52.3359ZM37.4883 49.3281L37.0977 49.0547L36.9805 48.8398L36.8438 48.625L36.668 48.4102L36.4727 48.1758L36.2383 47.9609L35.9648 47.7461L35.3398 47.2969L34.9883 47.082L34.5781 46.8867L34.6562 46.7109L35.5156 46.8867L35.9258 47.0039L36.3164 47.1211L36.668 47.2773L37.0195 47.4531L37.332 47.6484L37.625 47.8633L37.8984 48.0977L38.1328 48.3516L38.2305 48.8203L37.9766 49.2305L37.4883 49.3281Z" fill="white"/>
<path d="M62.4578 64.2891L62.1648 64.0352L61.618 62.8828L61.8328 62.8242L63.9422 62.3164V48.5469L65.1922 49.1914H67.4773V46.1445L68.7469 46.3398L69.0594 46.5547L68.7469 46.75V49.1914H71.4031L72.0477 48.6641L73.2 49.6016L72.6727 50.0312V56.418L71.4031 57.0625V56.0078H67.8484L68.2586 56.9453L68.7469 57.9219L69.2742 58.8398L69.8406 59.6602L70.4656 60.3828L70.7391 60.6562L70.6609 60.5391L71.4813 59.582L73.532 57.2773L73.6297 57.1797L74.4891 58.0977L74.5672 58.4688L74.1766 58.3711L73.0047 59.2891L72.282 59.8359L71.5203 60.3047L70.7781 60.6953L71.1297 61.0469L71.8328 61.6328L72.6141 62.1211L73.4344 62.5508L74.9969 63.1953L73.7859 64.2109L72.8094 63.7227L71.9305 63.1758L71.1102 62.5312L70.368 61.8086L69.7039 61.0078L69.118 60.1484L68.6102 59.1914L68.1805 58.1758L67.8484 57.082L67.6336 56.0078H65.1922V61.9844L66.032 61.7891L67.575 61.3984L69.1961 61.0664L69.2547 61.2422L67.7508 61.9453L66.2859 62.5508L64.1766 63.3516L62.8289 63.8203L62.5945 63.8984L62.4578 64.2891ZM59.4695 64.2891L59.0398 64.0742L58.8836 63.625L58.9422 62.8828L58.9617 62.2188L58.9031 61.6133L58.7859 61.0664L58.6102 60.5781L58.3758 60.1484L58.0828 59.7383L57.7117 59.3867L57.282 59.0547L56.7547 58.7422L56.8133 58.5664L57.4383 58.7031L58.0242 58.918L58.5516 59.25L58.7859 59.4648L60.3484 56.4961L62.3016 53.0391L63.1219 51.6523L63.2977 51.75L60.3289 58.625L59.8406 59.875L59.7039 60.3047L59.6453 60.5781H59.6258L59.7039 60.7344L59.9188 61.3789L60.075 62.1016L60.1531 62.8828V63.7227L59.9188 64.1523L59.4695 64.2891ZM65.1922 55.5781H71.4031V52.7461H65.1922V55.5781ZM59.5477 54.1328L59.157 53.8594L59.0594 53.6641L58.9422 53.4492L58.7664 53.2344L58.5711 53.0195L58.0633 52.5898L57.7313 52.3555L56.9891 51.9062L56.5594 51.7109L56.618 51.5352L57.5555 51.7109L57.9852 51.8086L58.3758 51.9453L58.7664 52.1016L59.0984 52.2773L59.4305 52.4727L59.7234 52.6875L59.9969 52.9219L60.2313 53.1953L60.2898 53.6836L60.0164 54.0742L59.5477 54.1328ZM65.1922 52.3359H71.4031V49.6016H65.1922V52.3359ZM61.1883 49.3281L60.7977 49.0547L60.6805 48.8398L60.5438 48.625L60.368 48.4102L60.1727 48.1758L59.9383 47.9609L59.6648 47.7461L59.0398 47.2969L58.6883 47.082L58.2781 46.8867L58.3563 46.7109L59.2156 46.8867L59.6258 47.0039L60.0164 47.1211L60.368 47.2773L60.7195 47.4531L61.032 47.6484L61.325 47.8633L61.5984 48.0977L61.8328 48.3516L61.9305 48.8203L61.6766 49.2305L61.1883 49.3281Z" fill="white"/>
<path d="M93.1891 64.5039V48.3516L94.4391 48.9766H96.7242L97.3688 48.4492L98.5211 49.3867L97.9938 49.8164V63.2539L96.7242 63.8789V62.6289H94.4391V63.8789L93.1891 64.5039ZM85.1813 64.4648L85.0445 64.3281L85.6305 63.5664L86.1578 62.7461L86.6266 61.8281L87.0172 60.832L87.3492 59.7578L87.6227 58.5664L87.818 57.2969L87.9547 55.9102L88.0328 54.4258V52.8633V50.9688H85.9234V50.5391H88.0328V46.457L89.3023 46.6523L89.6148 46.8672L89.3023 47.0625V50.5391H90.7672L91.4117 50.0312L92.5641 50.9688L92.0367 51.2812V52.707V54.4844L92.0172 56.1055L91.9781 57.5508L91.9195 58.8203L91.8414 59.9336L91.7438 60.8711L91.6266 61.6523L91.4898 62.2773L91.2945 62.8047L91.1578 63.0391L91.0211 63.2344L90.8453 63.4492L90.6695 63.6055L90.4547 63.7617L90.2203 63.8789L89.9859 63.9766L89.732 64.0352L89.4781 64.0742L89.2047 64.0938V63.4688L87.1148 63.1562V62.8242H89.2047H89.3609L89.4781 62.8047L89.5953 62.7656L89.693 62.7461L89.7906 62.6875L89.8688 62.6289L89.9469 62.5508L90.0836 62.3555L90.1617 62.2383L90.2789 61.9453L90.3961 61.418L90.4938 60.7148L90.5914 59.8164L90.6695 58.7422L90.7281 57.4922L90.7672 56.0859L90.7867 54.4648V51.8086H90.7672V50.9688H89.3023V52.8633L89.2242 54.4844L89.068 56.0273L88.8727 57.4531L88.5797 58.7812L88.2086 60.0117L87.7594 61.1445L87.232 62.1406L86.6266 63.0586L85.943 63.8203L85.1813 64.4648ZM94.4391 62.1992H96.7242V49.3867H94.4391V62.1992ZM80.65 61.2422V48.2539L81.9195 48.8789H84.1656L84.7906 48.3711L85.943 49.3086L85.4156 49.7188V59.9727L84.1656 60.5977V59.3477H81.9195V60.5977L80.65 61.2422ZM81.9195 58.918H84.1656V49.3086H81.9195V58.918Z" fill="white"/>
<path d="M110.073 64.4844L110.014 64.3086L110.815 63.8789L111.498 63.3906L112.104 62.8633L112.612 62.2578L113.022 61.5938L113.354 60.8516L113.608 60.0312L113.784 59.1328L113.881 58.2539L111.088 59.6016L110.756 59.7383L110.678 60.1289L110.366 59.9141L109.721 58.8008L113.901 57.3164V54.3281H110.854V53.8984H113.901V49.9141H111.069V49.5039H113.901V46.1445L115.151 46.3398L115.463 46.5547L115.151 46.75V56.8672L115.912 56.6133L116.518 56.4375L116.616 56.6133L116.088 56.9844L115.112 57.5898L115.073 58.2344L114.897 59.3281L114.623 60.3242L114.252 61.2422L113.784 62.0625L113.217 62.7852L112.553 63.3711L111.811 63.8789L110.971 64.2305L110.073 64.4844ZM117.26 64.3086V46.1445L118.51 46.3398L118.842 46.5547L118.51 46.75V49.5039H120.053L120.912 48.5469L121.967 49.5039V49.9141H118.51V53.8984H120.053L120.717 53.1758L121.557 53.8984V54.3281H118.51V58.3125H120.248L121.108 57.375L122.162 58.3125V58.7422H118.51V63.6641L117.26 64.3086ZM104.467 60.6562V48.4102L105.717 49.0547H108.315L108.94 48.5273L110.092 49.4648L109.565 49.8945V59.3867L108.315 60.0117V58.7617H105.717V60.0117L104.467 60.6562ZM105.717 58.332H108.315V49.4648H105.717V58.332Z" fill="white"/>
<path d="M141.741 64.5039V63.8789L139.632 63.5664V63.2539H141.741L141.878 63.2344L142.034 63.2148L142.171 63.1953L142.288 63.1562L142.405 63.0977L142.503 63.0391L142.62 62.9609L142.718 62.8828L142.933 62.668L143.011 62.5117L143.128 62.2773L143.206 61.9453L143.304 61.5352L143.363 61.0664L143.421 60.5L143.441 59.8555L143.46 59.1328L143.441 58.5078L143.421 58.5273V57.6875H132.816V58.9375L131.546 59.582V47.8242L132.816 48.4492H135.335L135.433 48.3125L136.019 47.1406L136.312 46.5938L136.448 46.3008L136.702 45.8516H136.683L136.78 45.6758L137.777 46.4766L137.913 46.8281L137.484 46.7891L136.644 47.6289L135.902 48.293L135.706 48.4492H140.902L141.527 47.9219L142.679 48.8594L142.152 49.2891V53.7031L140.902 54.3281V53.4883H132.816V55.168H143.812L144.671 54.2305L145.726 55.168V55.5781H132.816V57.2578H143.421L144.046 56.75L145.198 57.6875L144.691 58V58.332L144.71 59.1328V59.8945L144.671 60.5781L144.613 61.2031L144.534 61.75L144.437 62.2578L144.3 62.6875L144.144 63.0781L143.909 63.4297L143.753 63.625L143.577 63.8008L143.382 63.9766L143.167 64.1133L142.952 64.2305L142.718 64.3281L142.484 64.4062L142.23 64.4648L141.995 64.5039H141.741ZM129.144 63.1562V58.5273L130.394 58.7422L130.706 58.9375L130.394 59.1328V61.3594H134.378V58.0977L135.648 58.3125L135.96 58.5273L135.648 58.7227V61.3594H139.417V58.625L140.687 58.8398L140.999 59.0547L140.687 59.25V62.1992L139.417 62.8242V61.7891H130.394V62.5117L129.144 63.1562ZM132.816 53.0586H140.902V51.1836H132.816V53.0586ZM132.816 50.7539H140.902V48.8594H132.816V50.7539Z" fill="white"/>
<path fill-rule="evenodd" clip-rule="evenodd" d="M26.6722 0.315059C24.2766 0.689249 23.3986 1.14355 21.4875 2.99808C20.4236 4.03033 19.8132 4.4508 19.5332 4.34431C19.3095 4.25922 18.9332 4.2953 18.6971 4.42443C18.4613 4.5538 17.6362 4.94391 16.8635 5.29148C14.5721 6.32249 9.50385 10.9573 8.42562 13.0079C7.91956 13.9703 7 14.999 7.5 16.499C7.7142 17.1416 8.5 17.499 9.1007 17.8395C9.7014 18.18 10.7981 18.6115 12.6249 18.6115H14.6883L14.5041 20.0421C14.4028 20.8288 14.3599 22.4803 14.4085 23.7119C14.4572 24.9434 14.4896 27.9103 14.4803 30.305C14.464 34.5342 14.4399 34.73 13.6394 37.1469C13.1861 38.5152 12.0065 41.2022 11.0183 43.118C8.21263 48.5561 7.23752 51.7764 7.10455 52.9663C6.97158 54.1562 7.00004 53.999 6.84993 54.5725C6.77766 54.8486 6.49445 55.2122 5.90917 55.0699C4.41577 54.7071 3.17787 52.8083 2.58895 51.6537C2.00004 50.499 2.24124 51.0375 1.96179 50.4575C1.50004 49.499 1.50004 49.499 1.33462 49.1955C1.04678 48.6674 0.681616 48.1272 0.193931 48.3128C-0.139721 48.4397 -0.0724894 48.6883 0.629686 49.9248C2.70711 53.5828 3.54576 54.6071 4.92126 55.1672C6.9006 55.9733 6.96884 56.0337 7.1181 57.1137C7.29521 58.3965 8.28012 59.6721 10.1438 61.0328C12.3386 62.6353 13.3218 63.1199 15.8046 62.9746C18.1517 62.8373 24 62.4205 24 61.999C24 61.5776 22 61.999 20 61.999C16.5 62.4194 14.6494 62.4741 12.6236 61.5786C11.2629 60.9771 8.80368 58.8829 8.173 57.7887C7.32105 56.3104 7.48587 55.8703 9.01791 55.5339C10.6142 55.1836 10.8676 55.0316 10.8676 54.4235C10.8676 53.8047 10.6759 53.813 10.1526 54.4539C9.67769 55.0355 7.77437 55.4068 7.50243 54.9706C7.20565 54.4942 8.06889 50.7717 8.9853 48.5763C9.47299 47.4079 10.4519 45.3658 11.1606 44.0385C13.1572 40.2989 13.3451 39.8911 14.3195 37.1899C15.2284 34.6698 15.2326 34.6402 15.2708 30.305C15.2918 27.9103 15.2412 24.8874 15.1579 23.5875C15.0748 22.2875 15.0934 20.6081 15.1995 19.8555C15.3054 19.1029 15.4449 18.0124 15.5091 17.4322C15.8749 14.1384 17.3592 9.60611 18.9161 7.02883C20.0039 5.22829 22.9322 2.08873 23.8439 1.74564C24.2267 1.60134 25.6353 1.29755 26.9742 1.06991C29.7438 0.599432 32.2452 0.822104 34.0893 1.70359C35.3787 2.31986 36.9617 2.32608 38.1608 1.71926C39.7561 0.912169 40.2759 0.952225 40.7393 1.91755C41.2585 2.99957 41.8147 3.3964 42.6024 3.24712C42.9474 3.18169 43.2294 3.23294 43.2294 3.36082C43.2294 3.99625 42.3491 6.43818 41.7229 7.5401C41.2894 8.30291 40.9487 9.36129 40.8419 10.2769C40.6587 11.846 39.9254 13.3789 38.9069 14.3223L38.2996 14.8848L38.0211 14.3223C37.8681 14.013 37.5071 13.2084 37.2191 12.5339C36.8323 11.6278 36.6223 11.3808 36.4141 11.5873C36.1231 11.8759 36.2204 12.2314 37.2123 14.5064C38.4115 17.2571 38.7459 19.811 38.0871 21.1878C37.5124 22.3888 36.7093 22.9252 34.5745 23.5337C30.7515 24.6234 29.654 24.4662 29.2187 22.7659C29.0433 22.0805 29.0413 21.3485 29.2122 20.4942C29.8072 17.5196 29.9267 16.5918 30.0681 13.8471C30.1745 11.7838 30.1341 10.8974 29.9282 10.7712C29.3617 10.4239 29.2282 11.0718 29.082 14.8796C29.0007 17.0006 28.7651 19.5129 28.5589 20.4626C28.0883 22.6274 28.3495 23.8183 29.4671 24.6075C30.2277 25.1447 30.2766 25.1479 32.0322 24.7655C33.0166 24.5513 34 24.499 34 24.499C34 24.499 34.5 24.499 34.6999 24.6202C35 24.999 35 25.499 35.3313 26.3852C35.6276 27.1776 35.9917 27.675 36.3594 29.1199C37.0013 31.643 39.6379 37.7584 39.9681 37.8674C40.364 37.9982 38.1006 31.7574 37.5879 30.8252C37.3929 30.4707 37.0475 29.5108 36.8207 28.692C36.5937 27.8735 36.0882 26.5041 35.6973 25.649L34.9866 24.0948L35.9158 23.8465C37.0498 23.5437 38.635 21.9907 38.9611 20.8631C39.1096 20.3496 39.1159 19.2161 38.9782 17.8918L38.7551 15.7504L39.6951 14.6308C41.2392 12.7914 41.5077 12.2431 41.7327 10.4659C41.8714 9.37 42.2773 8.08023 42.8784 6.82456C44.0547 4.36819 44.35 1.70035 43.5532 0.725571C43.1225 0.198123 42.8674 0.131943 41.3062 0.141646C39.9224 0.150354 39.2699 0.290924 38.2599 0.798468C36.7271 1.56874 36.3937 1.58616 34.796 0.979094C31.9705 -0.0944619 30.2124 -0.238015 26.6722 0.315059ZM19.2982 5.03099C19.3729 5.22455 18.9339 6.23069 18.3223 7.26667C17.1839 9.19559 15.5818 13.6418 15.1137 16.1728L14.8513 17.5902L13.7237 17.7582C12.2646 17.9751 11.079 17.7741 9.64207 17.0668C8.54102 16.5246 8.54302 16.4521 8.54302 15.5347C8.70634 12.8519 12.5802 8.45219 17.2594 5.63581C18.9974 4.58937 19.1138 4.55479 19.2982 5.03099Z" fill="white"/>
<path d="M60.5835 38.1258C67.1198 36.2033 73.1317 34.1377 79.1954 31.0527C82.3293 29.4582 85.3878 28.0628 88.4264 26.3173C91.2732 24.6819 94 23 97.8073 21.7508C101.335 20.5931 101.5 20 104.5 20C109 21 110 24.6506 112.418 26.8268C114.216 28.4445 116.35 29.6952 118.202 31.2625C120.227 32.9757 122.679 33.4427 125.081 34.2146C126.795 34.7655 128.895 35.6982 130.715 35.6982" stroke="white" stroke-width="0.7" stroke-linecap="round"/>
<path d="M119.5 31.9988C122.321 30.8314 125.453 27.7535 127.808 25.9872C128.697 25.3205 129.355 24.8872 130 23.9998C130.478 23.342 131.644 22.3185 132.364 21.9262C135.738 20.0853 138.334 19.1918 141.115 22.2259C142.332 23.5532 143.36 25.2573 144.756 26.3918C146.457 27.7731 147 29.4988 149.327 30.8425C152 32.4988 150.5 31.4988 154 33.9988C155.726 35.2318 155 34.9988 159 37.4988C166 42.4988 176 45.9988 177.5 45.9988" stroke="white" stroke-width="0.7" stroke-linecap="round"/>
</svg>
